#N canvas 564 313 821 603 10;
#X obj 145 383 *~;
#X obj 173 383 *~;
#X obj 201 383 *~;
#X obj 229 383 *~;
#X obj 266 337 line~;
#X msg 266 317 \$1 5;
#X obj 306 337 line~;
#X msg 306 317 \$1 5;
#X obj 346 337 line~;
#X msg 346 317 \$1 5;
#X obj 386 337 line~;
#X msg 386 317 \$1 5;
#X text 364 157 <- Read waveforms from tables;
#X obj 266 232 r mix.sine;
#X obj 306 252 r mix.triangle;
#X obj 346 272 r mix.sawtooth;
#X obj 386 292 r mix.square;
#X text 412 244 <- Receive mix values;
#X obj 183 493 *~;
#X text 273 383 <- Multiply each signal with its mix value;
#X text 242 35 <- Input for this voice;
#X obj 203 36 inlet;
#X obj 255 468 line~;
#X msg 255 448 \$1 5;
#X obj 203 69 route pitch volume;
#X text 324 69 <- Separate pitch input from volume input;
#X text 305 457 <- apply volume (with a 5 ms ramp to avoid pops);
#X obj 183 521 outlet~ AUDIO_OUTPUT;
#X text 430 325 <- Add 5 ms volume fade to prevent pops when changing
mix;
#X obj 308 95 print ERROR - invalid method;
#X obj 203 96 mtof;
#X text 20 95 Convert MIDI to frequency ->;
#X obj 145 129 tabosc4~ sine_table;
#X obj 173 149 tabosc4~ triangle_table;
#X obj 201 169 tabosc4~ sawtooth_table;
#X obj 229 189 tabosc4~ square_table;
#X obj 255 427 pow 2;
#X text 305 425 <- input volume \, scaled by a power of two;
#X connect 0 0 18 0;
#X connect 1 0 18 0;
#X connect 2 0 18 0;
#X connect 3 0 18 0;
#X connect 4 0 0 1;
#X connect 5 0 4 0;
#X connect 6 0 1 1;
#X connect 7 0 6 0;
#X connect 8 0 2 1;
#X connect 9 0 8 0;
#X connect 10 0 3 1;
#X connect 11 0 10 0;
#X connect 13 0 5 0;
#X connect 14 0 7 0;
#X connect 15 0 9 0;
#X connect 16 0 11 0;
#X connect 18 0 27 0;
#X connect 21 0 24 0;
#X connect 22 0 18 1;
#X connect 23 0 22 0;
#X connect 24 0 30 0;
#X connect 24 1 36 0;
#X connect 24 2 29 0;
#X connect 30 0 32 0;
#X connect 30 0 33 0;
#X connect 30 0 34 0;
#X connect 30 0 35 0;
#X connect 32 0 0 0;
#X connect 33 0 1 0;
#X connect 34 0 2 0;
#X connect 35 0 3 0;
#X connect 36 0 23 0;
